<?xml version="1.0" encoding="utf-8"?>
<!-- Generator: Adobe Illustrator 16.0.4, SVG Export Plug-In . SVG Version: 6.00 Build 0)  -->
<!DOCTYPE svg PUBLIC "-//W3C//DTD SVG 1.1//EN" "http://www.w3.org/Graphics/SVG/1.1/DTD/svg11.dtd">
<svg version="1.1" id="logo-karoo" xmlns:sketch="http://www.bohemiancoding.com/sketch/ns"
	 xmlns="http://www.w3.org/2000/svg" xmlns:xlink="http://www.w3.org/1999/xlink" x="0px" y="0px" width="277px" height="57px"
	 viewBox="0 0 277 57" enable-background="new 0 0 277 57" xml:space="preserve">
<path id="O_1_" fill="#676767" d="M249.214,0.696c-1.409,0-2.793,0.107-4.144,0.313c-13.062,1.996-23.069,13.279-23.069,26.9
	c0,15.03,12.185,27.213,27.213,27.213c15.029,0,27.214-12.185,27.214-27.213C276.428,12.878,264.243,0.696,249.214,0.696z
	 M223.031,26.723c0.009-0.191,0.022-0.381,0.035-0.571c0.017-0.244,0.033-0.487,0.056-0.729c0.019-0.194,0.042-0.387,0.064-0.58
	c0.027-0.235,0.056-0.469,0.089-0.703c0.028-0.195,0.061-0.389,0.094-0.583c0.038-0.228,0.077-0.454,0.121-0.68
	c0.038-0.194,0.08-0.388,0.122-0.581c0.048-0.221,0.099-0.442,0.152-0.661c0.048-0.193,0.099-0.386,0.15-0.578
	c0.059-0.214,0.119-0.427,0.182-0.639c0.058-0.192,0.117-0.384,0.179-0.575c0.067-0.208,0.138-0.414,0.21-0.619
	c0.067-0.19,0.136-0.38,0.207-0.568c0.076-0.201,0.156-0.401,0.237-0.6c0.076-0.188,0.153-0.375,0.233-0.561
	c0.085-0.194,0.173-0.386,0.263-0.578c0.086-0.186,0.172-0.371,0.262-0.554c0.092-0.186,0.188-0.37,0.284-0.553
	c0.096-0.184,0.191-0.368,0.292-0.55c0.099-0.178,0.202-0.354,0.305-0.53c0.105-0.18,0.21-0.361,0.319-0.539
	c0.106-0.172,0.218-0.341,0.328-0.511c0.114-0.176,0.227-0.353,0.345-0.525c0.112-0.165,0.23-0.325,0.347-0.487
	c0.123-0.172,0.245-0.346,0.372-0.516c0.118-0.156,0.241-0.308,0.362-0.461c0.134-0.168,0.265-0.339,0.401-0.504
	c0.122-0.146,0.25-0.289,0.375-0.433c0.144-0.166,0.284-0.333,0.433-0.496c0.11-0.121,0.227-0.237,0.34-0.356
	c0.338-0.357,0.687-0.706,1.044-1.043c0.11-0.104,0.218-0.211,0.329-0.313c0.167-0.152,0.339-0.296,0.509-0.444
	c0.141-0.122,0.277-0.246,0.42-0.364c0.168-0.14,0.342-0.273,0.514-0.409c0.15-0.118,0.299-0.239,0.451-0.354
	c0.174-0.131,0.352-0.256,0.528-0.382c0.157-0.113,0.312-0.227,0.473-0.336c0.178-0.122,0.359-0.237,0.54-0.355
	c0.165-0.106,0.329-0.215,0.496-0.318c0.182-0.112,0.366-0.218,0.551-0.326c0.172-0.1,0.344-0.202,0.518-0.298
	c0.186-0.102,0.373-0.2,0.561-0.298c0.18-0.094,0.359-0.188,0.541-0.277c0.188-0.093,0.379-0.181,0.569-0.27
	c0.187-0.086,0.372-0.172,0.561-0.254c0.192-0.083,0.386-0.163,0.58-0.242c0.192-0.078,0.385-0.155,0.578-0.229
	c0.195-0.074,0.393-0.145,0.591-0.214c0.197-0.069,0.396-0.137,0.595-0.202c0.198-0.064,0.398-0.126,0.6-0.187
	c0.203-0.061,0.407-0.119,0.612-0.174c0.2-0.054,0.401-0.107,0.604-0.157c0.21-0.052,0.421-0.1,0.633-0.146
	c0.202-0.044,0.404-0.087,0.608-0.127c0.216-0.042,0.433-0.08,0.65-0.117c0.203-0.034,0.407-0.068,0.612-0.098
	c0.222-0.032,0.444-0.059,0.667-0.085c0.205-0.024,0.41-0.049,0.616-0.068c0.227-0.021,0.455-0.037,0.684-0.052
	c0.205-0.014,0.41-0.029,0.617-0.038c0.058-0.002,0.115-0.002,0.173-0.004v25.188h-25.188
	C223.028,26.847,223.028,26.785,223.031,26.723z M249.214,54.122c-14.454,0-26.213-11.759-26.213-26.213h26.213V1.696
	c14.454,0,26.214,11.759,26.214,26.213C275.428,42.364,263.668,54.122,249.214,54.122z"/>
<path id="O" fill="#676767" d="M192.214,0.696c-15.028,0-27.213,12.184-27.213,27.213c0,15.03,12.185,27.213,27.213,27.213
	c15.029,0,27.214-12.185,27.214-27.213C219.428,12.879,207.243,0.696,192.214,0.696z M191.214,54.097
	c-0.062-0.002-0.124-0.002-0.187-0.005c-0.191-0.009-0.381-0.022-0.571-0.035c-0.243-0.017-0.487-0.033-0.729-0.056
	c-0.194-0.019-0.387-0.042-0.58-0.064c-0.234-0.027-0.469-0.056-0.701-0.089c-0.196-0.028-0.391-0.062-0.586-0.094
	c-0.226-0.038-0.452-0.077-0.676-0.121c-0.196-0.038-0.391-0.08-0.585-0.122c-0.22-0.049-0.438-0.099-0.655-0.152
	c-0.196-0.048-0.391-0.099-0.585-0.151c-0.212-0.058-0.422-0.117-0.631-0.18c-0.196-0.059-0.391-0.119-0.584-0.182
	c-0.204-0.066-0.406-0.135-0.608-0.206c-0.194-0.068-0.388-0.138-0.579-0.211c-0.197-0.074-0.393-0.152-0.588-0.231
	c-0.191-0.078-0.384-0.157-0.573-0.24c-0.189-0.082-0.377-0.169-0.564-0.255c-0.19-0.089-0.38-0.177-0.567-0.27
	c-0.182-0.089-0.359-0.183-0.538-0.275c-0.189-0.099-0.378-0.197-0.564-0.3c-0.173-0.096-0.343-0.196-0.513-0.296
	c-0.187-0.108-0.373-0.216-0.557-0.329c-0.165-0.102-0.326-0.209-0.489-0.314c-0.183-0.118-0.367-0.235-0.547-0.358
	c-0.155-0.106-0.307-0.218-0.46-0.327c-0.182-0.13-0.364-0.258-0.542-0.393c-0.144-0.108-0.283-0.223-0.425-0.334
	c-0.181-0.143-0.363-0.282-0.54-0.43c-0.126-0.104-0.247-0.214-0.37-0.32c-0.188-0.161-0.377-0.321-0.559-0.487
	c-0.061-0.056-0.118-0.113-0.178-0.169c-0.47-0.437-0.923-0.89-1.359-1.359c-0.056-0.06-0.113-0.117-0.169-0.178
	c-0.166-0.182-0.326-0.371-0.487-0.559c-0.106-0.123-0.216-0.244-0.32-0.37c-0.147-0.177-0.287-0.359-0.43-0.54
	c-0.111-0.142-0.226-0.281-0.334-0.425c-0.135-0.178-0.263-0.36-0.393-0.542c-0.109-0.153-0.221-0.305-0.327-0.46
	c-0.123-0.18-0.24-0.364-0.358-0.547c-0.105-0.163-0.213-0.324-0.314-0.489c-0.113-0.184-0.221-0.37-0.329-0.557
	c-0.1-0.17-0.2-0.34-0.296-0.513c-0.103-0.187-0.201-0.375-0.3-0.564c-0.093-0.179-0.187-0.356-0.275-0.538
	c-0.093-0.188-0.181-0.377-0.27-0.567c-0.086-0.188-0.173-0.375-0.255-0.564c-0.083-0.189-0.162-0.382-0.24-0.573
	c-0.079-0.195-0.157-0.391-0.231-0.588c-0.073-0.191-0.143-0.385-0.211-0.579c-0.071-0.202-0.14-0.404-0.206-0.608
	c-0.062-0.193-0.123-0.388-0.182-0.584c-0.062-0.209-0.122-0.419-0.18-0.631c-0.053-0.194-0.104-0.389-0.151-0.585
	c-0.054-0.217-0.104-0.436-0.152-0.655c-0.042-0.194-0.084-0.389-0.122-0.585c-0.044-0.224-0.083-0.45-0.121-0.676
	c-0.032-0.195-0.065-0.39-0.094-0.586c-0.033-0.232-0.062-0.467-0.089-0.701c-0.022-0.193-0.046-0.386-0.064-0.58
	c-0.022-0.241-0.039-0.485-0.056-0.729c-0.013-0.19-0.026-0.38-0.035-0.571c-0.003-0.062-0.003-0.125-0.005-0.187h25.188V54.097z
	 M192.214,54.122V27.909h-26.213c0-14.454,11.759-26.213,26.213-26.213s26.214,11.759,26.214,26.213
	C218.428,42.364,206.668,54.122,192.214,54.122z"/>
<path id="R" fill="#676767" d="M156.59,38.642l3.821-4.427V21.712L118.067,0.06v56.273h55.896L156.59,38.642z M147.919,47.155
	l-0.804-6.152l10.922-5.576L147.919,47.155z M119.067,1.694l40.344,20.63v11.279l-40.344,20.596V1.694z M146.17,41.485l1.048,8.014
	l8.717-10.098l0,0l15.646,15.932h-52.534L146.17,41.485z"/>
<path id="A" fill="#676767" d="M87.168,0L59.282,55.771h55.771L87.168,0z M112.804,53.581L85.79,40.066l1.977-36.199l-0.001-0.436
	l0.169,0.339L112.804,53.581z M87.018,2.537l-2.262,38.13l28.292,14.104H60.9L87.018,2.537z"/>
<path id="K" fill="#676767" d="M55.77,0H-0.001v55.771H55.77L27.885,27.886L55.77,0z M0.999,54.065V1h52.357 M53.357,54.771H1.708
	l25.51-26.139L53.357,54.771z"/>
</svg>
