<?xml version="1.0" encoding="UTF-8" standalone="no"?>
<svg width="278px" height="56px" viewBox="0 0 278 56" version="1.1" xmlns="http://www.w3.org/2000/svg" xmlns:xlink="http://www.w3.org/1999/xlink" xmlns:sketch="http://www.bohemiancoding.com/sketch/ns">
    <!-- Generator: Sketch 3.4.4 (17249) - http://www.bohemiancoding.com/sketch -->
    <title>logo-karoo-v1-ligne-cleaned</title>
    <desc>Created with Sketch.</desc>
    <defs></defs>
    <g id="Page-1" stroke="none" stroke-width="1" fill="none" fill-rule="evenodd" sketch:type="MSPage">
        <g id="logo-karoo-v1-ligne-cleaned" sketch:type="MSLayerGroup" fill="#676767">
            <path d="M250.001,0 C248.551252,0 247.127226,0.11009444 245.737156,0.32205196 C232.297402,2.37577628 222.001,13.9850807 222.001,28 C222.001,43.4646676 234.53839,56 250.001,56 C265.464639,56 278.002029,43.4626098 278.002029,28 C278.002029,12.5343035 265.464639,0 250.001,0 L250.001,0 Z M223.060788,26.7797009 C223.070048,26.5831772 223.083424,26.3876824 223.0968,26.1921876 C223.114291,25.9411311 223.130754,25.6911035 223.154419,25.4421049 C223.173969,25.2424944 223.197634,25.0439128 223.22027,24.8453313 C223.248051,24.6035351 223.27789,24.3627678 223.311844,24.1220005 C223.340654,23.9213611 223.374608,23.7217506 223.408563,23.5221402 C223.447662,23.2875464 223.487789,23.0550105 223.533062,22.8224746 C223.572161,22.6228641 223.615375,22.4232536 223.65859,22.224672 C223.707978,21.9972807 223.760453,21.7698894 223.814986,21.5445559 C223.864374,21.3459744 223.916849,21.1473928 223.969324,20.9498401 C224.03003,20.7296513 224.091765,20.5104913 224.156587,20.2923603 C224.216265,20.0948076 224.276971,19.897255 224.340764,19.7007313 C224.409702,19.4867159 224.482755,19.2747584 224.556837,19.0638298 C224.625775,18.868335 224.69677,18.6728402 224.769824,18.4794032 C224.848022,18.2725903 224.930335,18.0668063 225.013678,17.8620512 C225.091876,17.6686143 225.171103,17.4762062 225.253416,17.2848271 C225.340874,17.0852166 225.431419,16.887664 225.524022,16.6901113 C225.612509,16.4987322 225.700996,16.308382 225.793599,16.1200897 C225.88826,15.9287105 225.987036,15.7393893 226.085812,15.5510969 C226.184589,15.3617756 226.282336,15.1724543 226.386257,14.9851909 C226.48812,14.8020431 226.594099,14.6209532 226.700078,14.4398633 C226.808114,14.2546577 226.916151,14.0684232 227.028303,13.8852754 C227.137369,13.7083012 227.252608,13.5344137 227.365789,13.3594973 C227.483086,13.1784074 227.599354,12.9962885 227.720766,12.8193143 C227.836005,12.6495425 227.957418,12.4849153 228.077802,12.3182303 C228.204359,12.141256 228.329887,11.9622239 228.46056,11.7873075 C228.581972,11.626796 228.708529,11.4704002 228.833029,11.3129754 C228.970904,11.1401169 229.105693,10.9641715 229.245626,10.7943997 C229.371154,10.6441774 229.502856,10.4970419 229.631471,10.3488774 C229.779635,10.1780767 229.923684,10.006247 230.076993,9.83853305 C230.190174,9.71403373 230.310558,9.59467901 230.426826,9.47223753 C230.774601,9.10491309 231.133694,8.74582001 231.501018,8.39907397 C231.6142,8.29206629 231.725323,8.18197185 231.839533,8.07702201 C232.011363,7.92062617 232.188337,7.77246169 232.363253,7.62018153 C232.508331,7.49465329 232.648264,7.36706721 232.7954,7.24565465 C232.968258,7.10160585 233.14729,6.96475949 233.324265,6.82482637 C233.478603,6.70341381 233.631912,6.57891449 233.788308,6.46058869 C233.96734,6.32580017 234.150487,6.19718517 234.331577,6.06754125 C234.493118,5.95127329 234.6526,5.83397641 234.818256,5.72182413 C235.001404,5.59629589 235.187639,5.47797009 235.373873,5.35655753 C235.543645,5.24749201 235.712388,5.13533973 235.884218,5.02936097 C236.071481,4.91412193 236.260802,4.80505641 236.451153,4.69393305 C236.628127,4.59104105 236.805101,4.48609121 236.984133,4.38731489 C237.175512,4.28236505 237.36792,4.18153089 237.561357,4.08069673 C237.746563,3.98397825 237.930739,3.88725977 238.118003,3.79568589 C238.31144,3.69999633 238.507964,3.60945137 238.703458,3.51787749 C238.895866,3.42939036 239.086217,3.34090324 239.280683,3.2565318 C239.478235,3.17113144 239.677846,3.08881784 239.877456,3.00753316 C240.075009,2.9272774 240.27359,2.84805056 240.472172,2.77191048 C240.672811,2.6957704 240.876537,2.62271708 241.080264,2.5517216 C241.282961,2.48072612 241.487716,2.41075956 241.692471,2.34387976 C241.896197,2.27802888 242.101981,2.21423584 242.309823,2.15147172 C242.518694,2.0887076 242.728593,2.02903024 242.939522,1.97243964 C243.145306,1.91687796 243.352119,1.8623452 243.56099,1.8108992 C243.777063,1.75739536 243.994165,1.7080072 244.212296,1.66067688 C244.420138,1.6154044 244.62798,1.57116084 244.837879,1.53000404 C245.060126,1.4867894 245.283402,1.44769044 245.506677,1.4096204 C245.715548,1.37463712 245.925448,1.33965384 246.136376,1.30878624 C246.364797,1.2758608 246.593217,1.24807996 246.822666,1.22132804 C247.033595,1.19663396 247.244523,1.17091096 247.456481,1.15136148 C247.690046,1.12975416 247.924639,1.11329144 248.160262,1.09785764 C248.371191,1.08345276 248.582119,1.06801896 248.795106,1.05875868 C248.854783,1.05670084 248.913432,1.05670084 248.973109,1.054643 L248.973109,26.97108 L223.056672,26.97108 C223.057701,26.907287 223.057701,26.8434939 223.060788,26.7797009 L223.060788,26.7797009 Z M250.001,54.97108 C235.12899,54.97108 223.02992,42.8720097 223.02992,28 L250.001,28 L250.001,1.02892 C264.87301,1.02892 276.973109,13.1279903 276.973109,28 C276.973109,42.8730386 264.87301,54.97108 250.001,54.97108 L250.001,54.97108 Z" id="O_1_" sketch:type="MSShapeGroup"></path>
            <path d="M193.001,0 C177.53839,0 165.001,12.5363613 165.001,28 C165.001,43.4646676 177.53839,56 193.001,56 C208.464639,56 221.002029,43.4626098 221.002029,28 C221.002029,12.5353324 208.464639,0 193.001,0 L193.001,0 Z M191.97208,54.945357 C191.908287,54.9432992 191.844494,54.9432992 191.779672,54.9402124 C191.583148,54.9309521 191.387653,54.9175762 191.192159,54.9042002 C190.942131,54.8867086 190.691075,54.8702458 190.442076,54.8465807 C190.242465,54.8270312 190.043884,54.803366 189.845302,54.7807298 C189.604535,54.752949 189.362739,54.7231103 189.124029,54.6891559 C188.922361,54.6603462 188.721722,54.6253629 188.521082,54.5924374 C188.288546,54.5533385 188.05601,54.5132106 187.825532,54.4679381 C187.623864,54.4288392 187.423225,54.3856245 187.223614,54.3424099 C186.997252,54.2919928 186.772947,54.2405468 186.549672,54.186014 C186.348003,54.1366259 186.147364,54.084151 185.947753,54.0306471 C185.729622,53.9709698 185.513549,53.9102635 185.298505,53.8454415 C185.096837,53.7847352 184.896197,53.723 184.697616,53.6581781 C184.487716,53.5902694 184.279874,53.5192739 184.072032,53.4462206 C183.872422,53.376254 183.672811,53.3042296 183.476288,53.2291184 C183.27359,53.1529784 183.071922,53.0727226 182.871283,52.9914379 C182.674759,52.9111822 182.476177,52.8298975 182.281711,52.7444971 C182.087246,52.6601257 181.893809,52.5706096 181.701401,52.4821225 C181.505906,52.3905486 181.310411,52.3000037 181.118003,52.2043141 C180.930739,52.1127402 180.748621,52.0160218 180.564444,51.9213611 C180.369978,51.819498 180.175512,51.7186639 179.984133,51.6126851 C179.80613,51.5139088 179.631214,51.4110168 179.456297,51.3081248 C179.263889,51.1970014 179.07251,51.0858781 178.883189,50.9696101 C178.713417,50.8646603 178.547761,50.7545658 178.380047,50.6465292 C178.191754,50.5251167 178.002433,50.404733 177.817228,50.2781759 C177.657745,50.1691104 177.501349,50.0538713 177.343924,49.941719 C177.156661,49.8079594 176.969397,49.6762577 176.78625,49.5373535 C176.638085,49.4262301 176.495065,49.3079043 176.348959,49.1936942 C176.162724,49.0465586 175.975461,48.9035387 175.793342,48.7512586 C175.663698,48.6442509 175.539199,48.5310697 175.412641,48.4220042 C175.219205,48.2563481 175.024739,48.0917209 174.837475,47.9209201 C174.774711,47.8633006 174.716063,47.8046522 174.654327,47.7470327 C174.170735,47.2973946 173.704634,46.8312939 173.256025,46.3487304 C173.198406,46.2869952 173.139757,46.2283467 173.082138,46.1655826 C172.911337,45.9783192 172.74671,45.7838533 172.581054,45.5904163 C172.471988,45.4638592 172.358807,45.3393599 172.251799,45.2097159 C172.100548,45.0275971 171.956499,44.8403337 171.809364,44.6540991 C171.695154,44.5079925 171.576828,44.3649726 171.465704,44.2168081 C171.3268,44.0336604 171.195098,43.8463969 171.061339,43.6591335 C170.949187,43.5017087 170.833947,43.3453129 170.724882,43.1858303 C170.598325,43.0006247 170.477941,42.8113034 170.356529,42.6230111 C170.248492,42.4552971 170.137369,42.289641 170.033448,42.1198692 C169.91718,41.9305479 169.806056,41.7391688 169.694933,41.5467607 C169.592041,41.3718443 169.489149,41.1969279 169.390373,41.0189248 C169.284394,40.8265167 169.18356,40.6330798 169.081697,40.4386139 C168.986007,40.2544372 168.889289,40.0723184 168.798744,39.8850549 C168.703054,39.691618 168.612509,39.4971521 168.520935,39.3016573 C168.432448,39.1082203 168.342932,38.9158123 168.258561,38.7213464 C168.17316,38.5268805 168.091876,38.328299 168.01162,38.1317753 C167.930335,37.9311359 167.850079,37.7294675 167.773939,37.5267703 C167.698828,37.3302466 167.626804,37.1306361 167.556837,36.9310256 C167.483784,36.7231838 167.412788,36.5153419 167.34488,36.3054423 C167.281087,36.1068607 167.218323,35.9062213 167.157616,35.704553 C167.093823,35.4895087 167.032088,35.2734355 166.972411,35.0553045 C166.917878,34.855694 166.865403,34.6550546 166.817044,34.4533862 C166.761482,34.2301106 166.710036,34.0047771 166.660648,33.7794436 C166.617433,33.5798332 166.574219,33.3791938 166.53512,33.1775254 C166.489847,32.9470474 166.449719,32.7145114 166.41062,32.4819755 C166.377695,32.2813361 166.343741,32.0806967 166.313902,31.8790284 C166.279948,31.640319 166.250109,31.3985228 166.222328,31.1577555 C166.199692,30.9591739 166.174998,30.7605924 166.156477,30.5609819 C166.133841,30.3130122 166.116349,30.0619557 166.098858,29.8108992 C166.085482,29.6154044 166.072106,29.4199096 166.062845,29.2233859 C166.059759,29.1595928 166.059759,29.0947709 166.057701,29.0309778 L191.974138,29.0309778 L191.974138,54.945357 L191.97208,54.945357 Z M193.001,54.97108 L193.001,28 L166.02992,28 C166.02992,13.1279903 178.12899,1.02892 193.001,1.02892 C207.87301,1.02892 219.973109,13.1279903 219.973109,28 C219.973109,42.8730386 207.87301,54.97108 193.001,54.97108 L193.001,54.97108 Z" id="O" sketch:type="MSShapeGroup"></path>
            <path d="M156.336111,38.3948252 L160.138574,33.9893022 L160.138574,21.5469586 L118,0 L118,56 L173.624829,56 L156.336111,38.3948252 L156.336111,38.3948252 Z M147.707178,46.8665257 L146.907078,40.7443712 L157.776092,35.1954223 L147.707178,46.8665257 L147.707178,46.8665257 Z M118.995149,1.62607289 L159.143426,22.1559896 L159.143426,33.3802712 L118.995149,53.8763528 L118.995149,1.62607289 L118.995149,1.62607289 Z M145.966663,41.2240328 L147.009578,49.1991541 L155.684289,39.1501431 L155.684289,39.1501431 L171.254385,55.0048513 L118.975246,55.0048513 L145.966663,41.2240328 L145.966663,41.2240328 Z" id="R" sketch:type="MSShapeGroup"></path>
            <path d="M87.0005021,0 L59,56 L115,56 L87.0005021,0 L87.0005021,0 Z M112.741765,53.8010077 L85.6168439,40.2305141 L87.6019616,3.8828782 L87.6009575,3.44508795 L87.7706514,3.78547991 L112.741765,53.8010077 L112.741765,53.8010077 Z M86.8498861,2.54741712 L84.5785982,40.8339818 L112.986767,54.9958939 L60.6246436,54.9958939 L86.8498861,2.54741712 L86.8498861,2.54741712 Z" id="A" sketch:type="MSShapeGroup"></path>
            <path d="M56,0 L0,0 L0,56 L56,56 L28.0005021,28.0005021 L56,0 L56,0 Z M1.00410608,54.286995 L1.00410608,1.00410608 L53.5760879,1.00410608 L1.00410608,54.286995 Z M53.577092,54.9958939 L1.71601728,54.9958939 L27.3307633,28.7495652 L53.577092,54.9958939 L53.577092,54.9958939 Z" id="K" sketch:type="MSShapeGroup"></path>
        </g>
    </g>
</svg>